<svg version="1.2" xmlns="http://www.w3.org/2000/svg" viewBox="0 0 2133 442" width="2133" height="442">
	<title>logopharmavitale-svg-svg</title>
	<style>
		.s0 { fill: #055a8e } 
		.s1 { fill: #7aa75f } 
		.s2 { fill: #f4d139 } 
	</style>
	<g id="Layer">
		<path id="Layer" fill-rule="evenodd" class="s0" d="m2109.5 17.5c12.5 6.1 19.6 21.3 17.3 37.5-1.5 11.2-8.3 21.1-17.6 25.7-11.8 5.8-25.3 2.9-34.1-7.4-6-7-8.4-13.9-8.4-24.3 0-6.3 0.5-9.9 2.1-14 3.9-9.8 12.3-17.7 21.7-20.1 5-1.3 13.4-0.2 19 2.6zm-36.9 18.4c-1.6 3.5-2.1 6.6-2.1 13.1 0 9.7 1.9 15 7.6 21.5 9.9 11.3 28.5 11.1 37.9-0.3 5.7-6.9 7.4-11.8 7.4-21.2 0-6.7-0.5-9.4-2.2-13-3.4-6.9-7.7-11.6-13.4-14.4-13.2-6.6-28.4-0.4-35.2 14.3z"/>
		<path id="Layer" fill-rule="evenodd" class="s0" d="m2086 30h7c7.8 0 13.3 1.8 14.9 4.8 0.6 1.2 1.1 4 1.1 6.3 0 3.4-0.6 4.7-3.4 7.3l-3.3 3.2 3.9 5c2.2 2.7 4.9 6.1 6 7.6l1.9 2.8h-3.8c-3.6 0-4.1-0.5-8.7-7-3.7-5.3-5.5-7-7.3-7-2.2 0-2.3 0.3-2.3 7v7h-6zm9.9 5h-3.9v13h3.8c2.5 0 4.5-0.7 5.5-1.8 2.1-2.3 2.2-7.6 0.1-9.6-0.9-0.9-3.2-1.6-5.5-1.6z"/>
		<path id="Layer" fill-rule="evenodd" class="s0" d="m396.8 29.4c6.1 2.2 9.7 5.2 12.9 11l2.8 5.1v57.5c0 62.8 0.1 62-5.8 68.7-6.3 7.2-6.7 7.3-48.4 7.3h-37.3v114.3c0 98.6-0.2 115-1.5 119.4-1.9 6.3-8 13.4-14.3 16.5l-4.7 2.3h-280l-5.1-2.7c-2.9-1.5-6.7-4.5-8.6-6.8-7.2-8.4-6.8 1.1-6.8-150.4 0-152.8-0.5-142.9 7.3-151.3 2.2-2.4 5.9-5.4 8.2-6.6l4-2.2 120.7-0.3 120.7-0.2 0.3-32.8c0.3-32 0.3-32.8 2.7-37.5 2.5-5.2 7.1-9.2 12.8-11.3 5.8-2 114.3-2 120.1 0zm-58.6 6.9c-61-0.3-60.1-0.3-65 4.9-1.2 1.4-2.7 4-3.2 5.9-0.6 1.9-1 18.4-1 37.6v34.3h-245.7l-4.4 2.3c-2.4 1.3-5.7 4.3-7.4 6.6l-3 4.3-0.3 136.6c-0.2 101.5 0 137.7 0.9 140.7 1.7 6.1 4.7 9.5 10.4 12.1l5.2 2.4 136.9-0.2c136.7-0.3 136.9-0.3 140.9-2.4 2.2-1.1 5.4-4 7-6.3l3-4.3 0.3-119.9 0.2-119.9h40.6c38.4 0 40.8-0.1 43.8-1.9 1.7-1.1 4-3.5 5.1-5.3 1.9-3.2 2-5.1 2-59.8 0-54.7-0.1-56.6-2-59.9-1.1-1.9-3.3-4.3-4.8-5.5-2.8-2.1-3.6-2.1-59.5-2.3z"/>
		<path id="Layer" class="s1" d="m63.5 162l97.6 0.2 97.6 0.3 3.7 2.9c2.1 1.6 4.7 4.7 5.7 7 1.8 3.9 1.9 8.5 1.9 99.6 0 91.1-0.1 95.7-1.9 99.6-1 2.3-3.6 5.4-5.7 7l-3.7 2.9-97.7 0.3-97.6 0.2-4.5-2.3c-2.9-1.6-5.2-3.8-6.9-6.8l-2.5-4.4v-96.5-96.5l2.7-4.6c1.9-3.2 4.1-5.3 7-6.8z"/>
		<path id="Layer" class="s0" d="m625 31h12.5 12.5v40.5c0 22.3 0.3 40.5 0.6 40.5 0.3 0 3-2.1 5.9-4.8 11.2-9.9 24.5-16.1 36.4-16.9 25.6-1.7 42.7 11.8 49.6 39.2 1.6 6.2 1.9 13.9 2.2 68.2l0.4 61.3h-13-13.1v-52c0-63.2-0.9-73.4-7-82.1-5.8-8-19.7-11-32.6-7.1-7 2.2-18.9 9.2-25.6 15.1l-3.8 3.3v61.4 61.4h-12.5-12.5v-114z"/>
		<path id="Layer" class="s0" d="m1886 31h13 13v114 114h-13-13v-114z"/>
		<path id="Layer" class="s0" d="m1578 39h15 15v14.5 14.5h-15-15v-14.5z"/>
		<path id="Layer" fill-rule="evenodd" class="s0" d="m473 40.8l35.8 0.5c27.8 0.4 37.2 0.8 42.4 2.1 33.5 7.9 51.3 32.1 49.5 67-0.7 12.9-2.5 20.2-7.5 30.6-5 10.4-17.6 23-28.3 28.3-13.1 6.4-20.6 7.9-44.1 8.4l-20.8 0.5v80.8h-27zm43.3 25.2h-16.3v87h14.3c30-0.1 41.7-4.3 51.4-18.7 5.5-8.3 7.8-18.1 7-30.2-0.8-11.9-3.7-19.2-10.1-25.6-6.2-6.1-12.6-9.3-22.6-11.1-4.2-0.7-14.7-1.3-23.7-1.4z"/>
		<path id="Layer" class="s0" d="m1407.5 41h14.4l2.4 7.7c19.6 63.5 53.2 171 53.6 171.5 0.4 0.4 13.2-39.7 28.6-89.2l28-90h13.8c7.5 0 13.7 0.1 13.7 0.3 0 0.1-15.7 49-34.8 108.7l-34.9 108.5h-14.8-14.8l-34.8-108.5c-19.2-59.7-34.9-108.6-34.9-108.8 0-0.1 6.5-0.2 14.5-0.2z"/>
		<path id="Layer" class="s0" d="m1646 48h13 13v23.5 23.5h23.5 23.5v11.5 11.5h-23.5-23.5v49.3c0 41.2 0.3 50.3 1.5 55.2 3.2 12.2 10.4 16.9 25 16.1 4.4-0.2 10.6-1.4 13.9-2.5 3.3-1.2 6.1-2.1 6.3-2.1 0.1 0 0.3 5.6 0.3 12.3v12.4l-7.7 1.7c-17.2 3.8-32.9 2.9-43.4-2.5-9.1-4.6-16.6-15.3-19.9-28.4-0.9-3.6-1.4-19.8-1.7-58.3l-0.4-53.2h-8.5-8.4v-11.5-11.5h8.5 8.5v-23.5z"/>
		<path id="Layer" class="s0" d="m1134.7 112.5l2.4 5.4 6.1-6.4c12.5-13.5 24.2-20.1 37-21.2 18.6-1.6 33.2 6.6 41.3 23 6.7 13.7 6.8 14.3 7.2 83.4l0.4 62.3h-13-12.9l-0.5-60.3c-0.4-64.9-0.5-66.4-5.9-74.2-4-5.9-9-8-18.8-8-7.6 0-9.2 0.4-14.6 3.2-6.9 3.6-21.4 14.8-21.4 16.6 0 0.7 0 28.5 0 61.9v60.8h-12.9-13l-0.3-61.3c-0.3-57.6-0.5-61.5-2.3-66.7-3.5-9.9-11.1-15-22.3-15-8.9 0-20 5.5-30.9 15.4l-5.3 4.8v61.4 61.4h-12.5-12.5v-82-82h12.5 12.5v8.5 8.6l7.8-6.7c9.2-7.9 14.3-11 22-13.5 19.5-6.2 41.8 3 49.9 20.6z"/>
		<path id="Layer" fill-rule="evenodd" class="s0" d="m2052.3 106.9c13.2 14 18.6 31.6 18.7 60.3v12.8h-106.3l0.7 8.1c3 34.1 22.7 52.6 54 50.6 14.4-0.9 27.8-5.9 41.4-15.3 3.5-2.4 6.5-4.4 6.8-4.4 0.2 0 0.3 6.8 0.2 15.2l-0.3 15.2-9 3.9c-4.9 2.1-13.3 5.1-18.5 6.5-8.4 2.4-11.2 2.7-24.5 2.6-17.6 0-24.8-1.5-37.5-7.6-10.8-5.2-22.6-16.6-28.2-27.3-9.2-17.7-12.7-42.2-9.7-67 4.5-36.5 25.1-62.6 54.5-68.9 22.5-4.8 44.2 1 57.7 15.3zm-41.6 5.5c-14.3-0.6-22.9 2.8-31.9 12.4-7 7.5-11.5 17.6-13.2 29.9l-0.6 4.3h81v-3.3c-0.1-6.1-2.8-18.7-5.3-24-3.3-7.3-8.8-13.1-15.3-16.3-4.5-2.2-7.2-2.8-14.7-3z"/>
		<path id="Layer" fill-rule="evenodd" class="s0" d="m855.9 93.5c13.4 3.3 25.2 12.1 30.4 22.9 5.6 11.3 5.7 12.7 5.7 80.3v62.3h-25v-8c0-4.4-0.3-8-0.6-8-0.4 0-3.7 2.4-7.3 5.3-8.5 6.9-12.2 9.1-20.7 12.3-8.3 3.1-21.3 4.2-29.6 2.5-21.2-4.5-36-23.2-37.5-47.6-1.5-24.3 7.3-41.4 26.6-51.4 12.7-6.6 29.6-10.1 61-12.7l8.4-0.6-0.6-7.9c-0.3-5.3-1.3-9.5-3-13.2-4.4-9.6-12-13.5-28.2-14.4-12.3-0.7-24.3 1.3-38.7 6.2-5.7 2-11.1 3.9-12 4.2-1.7 0.5-1.8-0.6-1.8-13 0-12 0.2-13.7 1.8-14.5 2.1-1.2 19.6-5 28.2-6.2 9.4-1.3 35.2-0.4 42.9 1.5zm11.1 79.5l-2.2 0.1c-6.3 0.3-27.2 3-34.3 4.4-21.8 4.3-32.7 15-32.8 32.1 0 10.4 1.8 15.9 7.2 21.5 6 6.1 13.1 8.4 24.1 7.6 11.9-0.8 22.5-5.9 34.4-16.4l3.6-3.2z"/>
		<path id="Layer" fill-rule="evenodd" class="s0" d="m1339.9 93.5c13.4 3.3 25.2 12.1 30.4 22.9 5.6 11.3 5.7 12.7 5.7 80.3v62.3h-25v-8c0-4.4-0.3-8-0.6-8-0.4 0-3.7 2.4-7.3 5.3-8.5 6.9-12.2 9.1-20.7 12.3-8.3 3.1-21.3 4.2-29.6 2.5-21.2-4.5-36-23.2-37.5-47.6-1.5-24.3 7.3-41.4 26.6-51.4 12.7-6.6 29.6-10.1 61-12.7l8.4-0.6-0.6-7.9c-0.3-5.3-1.3-9.5-3-13.2-4.4-9.6-12-13.5-28.2-14.4-12.3-0.7-24.3 1.3-38.7 6.2-5.7 2-11.1 3.9-12 4.2-1.7 0.5-1.8-0.6-1.8-13 0-12 0.2-13.7 1.8-14.5 2.1-1.2 19.6-5 28.2-6.2 9.4-1.3 35.2-0.4 42.9 1.5zm11.1 79.5l-2.2 0.1c-6.3 0.3-27.2 3-34.3 4.4-21.8 4.3-32.7 15-32.8 32.1 0 10.4 1.8 15.9 7.2 21.5 6 6.1 13.1 8.4 24.1 7.6 11.9-0.8 22.5-5.9 34.4-16.4l3.6-3.2z"/>
		<path id="Layer" fill-rule="evenodd" class="s0" d="m1812.9 93.5c13.4 3.3 25.2 12.1 30.4 22.9 5.6 11.3 5.7 12.7 5.7 80.3v62.3h-25v-8c0-4.4-0.3-8-0.6-8-0.4 0-3.7 2.4-7.3 5.3-8.5 6.9-12.2 9.1-20.7 12.3-8.3 3.1-21.3 4.2-29.6 2.5-21.2-4.5-36-23.2-37.5-47.6-1.5-24.3 7.3-41.4 26.6-51.4 12.7-6.6 29.6-10.1 61-12.7l8.4-0.6-0.6-7.9c-0.3-5.3-1.3-9.5-3-13.2-4.4-9.6-12-13.5-28.2-14.4-12.3-0.7-24.3 1.3-38.7 6.2-5.7 2-11.1 3.9-12 4.2-1.7 0.5-1.8-0.6-1.8-13 0-12 0.2-13.7 1.8-14.5 2.1-1.2 19.6-5 28.2-6.2 9.4-1.3 35.2-0.4 42.9 1.5zm11.1 79.5l-2.2 0.1c-6.3 0.3-27.2 3-34.3 4.4-21.8 4.3-32.7 15-32.8 32.1 0 10.4 1.8 15.9 7.2 21.5 6 6.1 13.1 8.4 24.1 7.6 11.9-0.8 22.5-5.9 34.4-16.4l3.6-3.2z"/>
		<path id="Layer" class="s0" d="m929 95h12.5 12.5v11.5c0 6.3 0.3 11.5 0.8 11.5 0.4 0 3.8-2.7 7.6-5.9 13.2-11.2 25.8-17 37.1-17.1 11.1 0 10.5-0.9 10.5 15.4v14.1h-12.7c-10.7 0.1-13.8 0.4-18.8 2.3-6.6 2.4-14.5 7.4-20.5 12.8l-4 3.6v57.9 57.9h-12.5-12.5v-82z"/>
		<path id="Layer" class="s0" d="m1580 95h13 13v82 82h-13-13v-82z"/>
		<path id="Layer" class="s0" d="m500.8 345h19.2v4 4h-19.1-19.1l-2.9 3.1-2.9 3.1v28 28l2.9 2.9 2.9 2.9h19.1 19.1v4.1 4l-20.2-0.3c-19.2-0.3-20.5-0.4-23.5-2.6-1.7-1.2-4.1-4.2-5.3-6.6-2-4.2-2.1-5.5-1.8-33.8l0.3-29.5 2.6-4c1.5-2.2 4.2-4.7 6-5.6 2.8-1.4 6.8-1.7 22.7-1.7z"/>
		<path id="Layer" class="s0" d="m637.8 345h19.2v4 4h-19.1-19.1l-2.9 3.1c-2.8 3.1-2.9 3.3-2.9 14.5v11.4h22 22v4 4h-22-22v12.6c0 12.5 0 12.6 2.9 15.5l2.9 2.9h19.1 19.1v4.1 4l-20.2-0.3c-19.2-0.3-20.5-0.4-23.5-2.6-1.7-1.2-4.1-4.2-5.3-6.6-2-4.2-2.1-5.5-1.8-33.8l0.3-29.5 2.6-4c1.5-2.2 4.2-4.7 6-5.6 2.8-1.4 6.8-1.7 22.7-1.7z"/>
		<path id="Layer" fill-rule="evenodd" class="s0" d="m770.8 345c17.8 0 20.8 0.9 25 7.3 2.7 4 2.7 4.4 2.7 20.7 0 16.1-0.1 16.8-2.5 20.4-4.6 6.8-7.4 7.6-28 7.6h-18v28h-7.1l0.6-72.6 2.6-4.1c1.5-2.2 4.2-4.7 6-5.6 2.7-1.3 6.5-1.7 18.7-1.7zm-0.3 8h-14.7l-5.8 6.2v33.8h36.2l5.8-5.8v-13.2c0-13.8-1-17.9-4.9-20-1.1-0.5-8.5-1-16.6-1z"/>
		<path id="Layer" class="s0" d="m886 345h3.5 3.5v42 42h-3.5-3.5v-42z"/>
		<path id="Layer" class="s0" d="m1149.7 346.7c4.9 2.3 8.3 7.9 9 14.7l0.6 5.6h-3.7c-3.4 0-3.6-0.2-3.6-3 0-3.8-2.4-8.6-4.9-10-1.1-0.5-8.5-1-16.6-1h-14.7l-2.9 3.1c-2.5 2.6-2.9 3.9-2.9 8.4 0 4.2 0.5 6 2.3 8 1.2 1.4 10 6.3 20.2 11.1 9.9 4.7 19.2 9.7 20.7 11.1 9 8.6 6.9 27.7-3.5 32.6-5.1 2.4-32.3 2.4-37.4 0-4.9-2.3-8.5-8.2-9.1-14.9l-0.4-5.4h3.6c3.5 0 3.6 0.1 3.6 4.1 0 3.1 0.6 4.7 2.9 7l2.9 2.9h15.2 15.2l2.9-2.9c2.5-2.5 2.9-3.7 2.9-8.5 0-4.3-0.5-6-2.2-8-1.3-1.4-10.4-6.3-20.3-11-10-4.7-19.4-9.8-21.2-11.5-8.6-8.2-6.3-27.4 3.8-32.4 4.9-2.4 32.5-2.4 37.6 0z"/>
		<path id="Layer" fill-rule="evenodd" class="s0" d="m1226.8 345c17.8 0 20.8 0.9 25 7.3l2.7 4.1v61.2l-2.7 4.1c-4.4 6.7-7.3 7.5-26.1 7.1-18.6-0.3-20.8-1.2-24.7-9.2-2-4.2-2.1-5.5-1.8-33.8l0.3-29.5 2.6-4c1.5-2.2 4.2-4.7 6-5.6 2.7-1.3 6.5-1.7 18.7-1.7zm-0.3 8h-14.7l-5.8 6.2v56l5.8 5.8h30.4l5.8-5.8v-27.2c0-28.8-0.4-31.5-4.9-34-1.1-0.5-8.5-1-16.6-1z"/>
		<path id="Layer" class="s0" d="m1326.8 345h19.2v4 4h-19.1-19.1l-2.9 3.1c-2.8 3.1-2.9 3.3-2.9 14.5v11.4h22 22v4 4h-22-22v19.5 19.5h-3.5-3.6l0.3-36.3 0.3-36.3 2.6-4.1c1.5-2.2 4.2-4.7 6-5.6 2.8-1.4 6.8-1.7 22.7-1.7z"/>
		<path id="Layer" class="s0" d="m1385 345h28 28v4 4h-12.5-12.5v38 38h-3.5-3.5v-38-38h-12-12v-4z"/>
		<path id="Layer" fill-rule="evenodd" class="s0" d="m1631.8 345c17.8 0 20.8 0.9 25 7.3l2.7 4.1v61.2l-2.7 4.1c-4.4 6.7-7.3 7.5-26.1 7.1-18.6-0.3-20.8-1.2-24.7-9.2-2-4.2-2.1-5.5-1.8-33.8l0.3-29.5 2.6-4c1.5-2.2 4.2-4.7 6-5.6 2.7-1.3 6.5-1.7 18.7-1.7zm-0.3 8h-14.7l-5.8 6.2v56l5.8 5.8h30.4l5.8-5.8v-27.2c0-28.8-0.4-31.5-4.9-34-1.1-0.5-8.5-1-16.6-1z"/>
		<path id="Layer" class="s0" d="m1731.8 345h19.2v4 4h-19.1-19.1l-2.9 3.1c-2.8 3.1-2.9 3.3-2.9 14.5v11.4h22 22v4 4h-22-22v19.5 19.5h-3.5-3.6l0.3-36.3 0.3-36.3 2.6-4.1c1.5-2.2 4.2-4.7 6-5.6 2.8-1.4 6.8-1.7 22.7-1.7z"/>
		<path id="Layer" class="s0" d="m1822.8 345h19.2v4 4h-19.1-19.1l-2.9 3.1c-2.8 3.1-2.9 3.3-2.9 14.5v11.4h22 22v4 4h-22-22v19.5 19.5h-3.5-3.6l0.3-36.3 0.3-36.3 2.6-4.1c1.5-2.2 4.2-4.7 6-5.6 2.8-1.4 6.8-1.7 22.7-1.7z"/>
		<path id="Layer" class="s0" d="m1881 345h3.5 3.5v42 42h-3.5-3.5v-42z"/>
		<path id="Layer" class="s0" d="m1959.8 345h19.2v4 4h-19.1-19.1l-2.9 3.1-2.9 3.1v28 28l2.9 2.9 2.9 2.9h19.1 19.1v4.1 4l-20.2-0.3c-19.2-0.3-20.5-0.4-23.5-2.6-1.7-1.2-4.1-4.2-5.3-6.6-2-4.2-2.1-5.5-1.8-33.8l0.3-29.5 2.6-4c1.5-2.2 4.2-4.7 6-5.6 2.8-1.4 6.8-1.7 22.7-1.7z"/>
		<path id="Layer" class="s0" d="m2050.8 345h19.2v4 4h-19.1-19.1l-2.9 3.1c-2.8 3.1-2.9 3.3-2.9 14.5v11.4h22 22v4 4h-22-22v12.6c0 12.5 0 12.6 2.9 15.5l2.9 2.9h19.1 19.1v4.1 4l-20.2-0.3c-19.2-0.3-20.5-0.4-23.5-2.6-1.7-1.2-4.1-4.2-5.3-6.6-2-4.2-2.1-5.5-1.8-33.8l0.3-29.5 2.6-4c1.5-2.2 4.2-4.7 6-5.6 2.8-1.4 6.8-1.7 22.7-1.7z"/>
		<path id="Layer" class="s0" d="m562.5 421c3.4 0 3.5 0.1 3.5 4 0 3.9-0.1 4-3.5 4-3.4 0-3.5-0.1-3.5-4 0-3.9 0.1-4 3.5-4z"/>
		<path id="Layer" class="s0" d="m700.5 421c3.4 0 3.5 0.1 3.5 4 0 3.9-0.1 4-3.5 4-3.4 0-3.5-0.1-3.5-4 0-3.9 0.1-4 3.5-4z"/>
		<path id="Layer" class="s0" d="m842.5 421c3.4 0 3.5 0.1 3.5 4 0 3.9-0.1 4-3.5 4-3.4 0-3.5-0.1-3.5-4 0-3.9 0.1-4 3.5-4z"/>
		<path id="Layer" class="s0" d="m935.5 421c3.4 0 3.5 0.1 3.5 4 0 3.9-0.1 4-3.5 4-3.4 0-3.5-0.1-3.5-4 0-3.9 0.1-4 3.5-4z"/>
		<path id="Layer copy" class="s2" d="m304.6 67l31.8 0.1 31.9 0.1 1.2 0.9c0.7 0.5 1.6 1.6 1.9 2.3 0.6 1.3 0.6 2.8 0.6 32.5 0 29.8 0 31.3-0.6 32.5-0.3 0.8-1.2 1.8-1.9 2.3l-1.2 1-31.9 0.1h-31.9l-1.4-0.7c-1-0.5-1.7-1.2-2.3-2.2l-0.8-1.5v-31.5-31.5l0.9-1.5c0.6-1 1.3-1.7 2.3-2.2z"/>
	</g>
</svg>