<svg xmlns="http://www.w3.org/2000/svg" xmlns:xlink="http://www.w3.org/1999/xlink" width="133.901" height="35.012" viewBox="0 0 133.901 35.012">
	<defs>
		<clipPath id="clip-path">
			<path id="Tracé_604" data-name="Tracé 604" d="M98.3,62.3V95.853h30.812V89.487H105.064V62.3Z" transform="translate(-98.3 -62.3)" fill="#fff"/>
		</clipPath>
		<clipPath id="clip-path-2">
			<path id="Tracé_605" data-name="Tracé 605" d="M172.1,62.3V95.853h30.768V89.487h-24V81.618h19.628V75.3H178.864V68.622h23.474V62.3Z" transform="translate(-172.1 -62.3)" fill="#fff"/>
		</clipPath>
		<clipPath id="clip-path-3">
			<path id="Tracé_606" data-name="Tracé 606" d="M295.265,78.106c4.509,1.724,5.658,5.57,10.521,5.57,3.4,0,6.145-1.945,6.145-5.57,0-3.581-2.741-5.57-6.145-5.57-4.818.044-5.968,3.846-10.521,5.57m-47.168,0c0-7.294,5.614-11.273,12.51-11.273s12.466,3.979,12.466,11.273-5.57,11.273-12.466,11.273c-6.94,0-12.51-3.979-12.51-11.273m-6.9-.133v.265c.088,11.228,8.709,17.373,19.362,17.373,15.3,0,18.965-12.024,33.2-17.506-14.323-5.482-17.9-17.506-33.2-17.506-10.654,0-19.274,6.145-19.362,17.373" transform="translate(-241.2 -60.6)" fill="#fff"/>
		</clipPath>
	</defs>
	<g id="LEO" transform="translate(-98.3 -60.6)">
		<g id="Groupe_551" data-name="Groupe 551" transform="translate(98.3 61.352)">
			<g id="Groupe_550" data-name="Groupe 550">
				<g id="Groupe_549" data-name="Groupe 549" clip-path="url(#clip-path)">
					<rect id="Rectangle_397" data-name="Rectangle 397" width="30.856" height="33.553" fill="#fff"/>
				</g>
			</g>
		</g>
		<g id="Groupe_554" data-name="Groupe 554" transform="translate(130.924 61.352)">
			<g id="Groupe_553" data-name="Groupe 553">
				<g id="Groupe_552" data-name="Groupe 552" clip-path="url(#clip-path-2)">
					<rect id="Rectangle_398" data-name="Rectangle 398" width="30.768" height="33.553" fill="#fff"/>
				</g>
			</g>
		</g>
		<g id="Groupe_557" data-name="Groupe 557" transform="translate(161.471 60.6)">
			<g id="Groupe_556" data-name="Groupe 556">
				<g id="Groupe_555" data-name="Groupe 555" clip-path="url(#clip-path-3)">
					<rect id="Rectangle_399" data-name="Rectangle 399" width="70.73" height="34.967" transform="translate(0 0)" fill="#fff"/>
				</g>
			</g>
		</g>
	</g>
</svg>
