<svg id="Layer_1" data-name="Layer 1" xmlns="http://www.w3.org/2000/svg" xmlns:xlink="http://www.w3.org/1999/xlink" viewBox="0 0 801.62 274.18"><defs><style>.cls-1,.cls-2,.cls-53,.cls-56,.cls-57{fill:none;}.cls-1{clip-rule:evenodd;}.cls-2{stroke:#009ee3;}.cls-10,.cls-11,.cls-2,.cls-3,.cls-53,.cls-56,.cls-57,.cls-8,.cls-9{stroke-miterlimit:22.93;}.cls-2,.cls-57{stroke-width:2.16px;}.cls-3{stroke:#577371;stroke-width:0.72px;fill:url(#GradientFill_1);}.cls-10,.cls-11,.cls-3,.cls-4,.cls-5,.cls-53,.cls-56,.cls-57,.cls-6,.cls-7,.cls-8,.cls-9{fill-rule:evenodd;}.cls-4,.cls-8{fill:url(#GradientFill_1-2);}.cls-5,.cls-9{fill:url(#GradientFill_1-3);}.cls-10,.cls-6{fill:url(#GradientFill_1-4);}.cls-11,.cls-7{fill:url(#GradientFill_1-5);}.cls-10,.cls-11,.cls-8,.cls-9{stroke:#000003;}.cls-10,.cls-11,.cls-56,.cls-8,.cls-9{stroke-width:0.5px;}.cls-12{clip-path:url(#clip-path);}.cls-13{fill:#7c6eb0;}.cls-14{fill:#7f6caf;}.cls-15{fill:#8269ac;}.cls-16{fill:#8468ab;}.cls-17{fill:#8765a9;}.cls-18{fill:#8b63a8;}.cls-19{fill:#8e60a5;}.cls-20{fill:#925fa4;}.cls-21{fill:#985ea3;}.cls-22{fill:#9c5aa0;}.cls-23{fill:#a0589f;}.cls-24{fill:#a6579e;}.cls-25{fill:#ac559c;}.cls-26{fill:#af539b;}.cls-27{fill:#b5529a;}.cls-28{fill:#ba4d97;}.cls-29{fill:#c24b96;}.cls-30{fill:#ca4995;}.cls-31{fill:#d54492;}.cls-32{fill:#d83f89;}.cls-33{fill:#da3c7d;}.cls-34{fill:#dc3670;}.cls-35{fill:#de3461;}.cls-36{fill:#df3255;}.cls-37{fill:#e42f45;}.cls-38{fill:#e62733;}.cls-39{fill:#e52720;}.cls-40{fill:#e6371c;}.cls-41{fill:#e74216;}.cls-42{fill:#e94f10;}.cls-43{fill:#eb5c0a;}.cls-44{fill:#ec6801;}.cls-45{fill:#ef7800;}.cls-46{fill:#f18700;}.cls-47{fill:#f49600;}.cls-48{fill:#f7a600;}.cls-49{fill:#fab600;}.cls-50{fill:#fc0;}.cls-51{fill:#ffde00;}.cls-52{fill:#ffed00;}.cls-53{stroke:#1a1a18;stroke-width:0.22px;}.cls-54{clip-path:url(#clip-path-2);}.cls-55{fill:#009ee3;}.cls-56{stroke:#2f2483;}.cls-57{stroke:#478779;}</style><linearGradient id="GradientFill_1" x1="4.5" y1="153.11" x2="481.76" y2="151.61" gradientUnits="userSpaceOnUse"><stop offset="0" stop-color="#fff"/><stop offset="0.45" stop-color="#58a494"/><stop offset="1" stop-color="#00963f"/></linearGradient><linearGradient id="GradientFill_1-2" x1="-1.15" y1="207.93" x2="476.11" y2="206.42" xlink:href="#GradientFill_1"/><linearGradient id="GradientFill_1-3" x1="4.69" y1="213.62" x2="481.95" y2="212.12" xlink:href="#GradientFill_1"/><linearGradient id="GradientFill_1-4" x1="4.69" y1="213.88" x2="481.95" y2="212.37" xlink:href="#GradientFill_1"/><linearGradient id="GradientFill_1-5" x1="-1.15" y1="208.84" x2="476.12" y2="207.33" xlink:href="#GradientFill_1"/><clipPath id="clip-path" transform="translate(-5.84 -5.34)"><path class="cls-1" d="M293.74,55.88C305.89,47.34,318,41.6,330.2,41.6s24.32,5.77,36.49,14.28a72.09,72.09,0,0,1,7,8.15c-14.5-6.51-29-10.92-43.5-10.93s-29,4.4-43.48,10.93a73.05,73.05,0,0,1,7-8.15Zm-9.51,12.21a67.27,67.27,0,0,0-3.52,8.14c16.49-3.52,33-5.89,49.5-5.89s33,2.38,49.52,5.89a67.27,67.27,0,0,0-3.52-8.14c-15.33-5.5-30.65-9.25-46-9.25s-30.65,3.72-46,9.25Zm-4.65,12.2a343.13,343.13,0,0,1,50.63-4.21,346.52,346.52,0,0,1,50.65,4.21A66.76,66.76,0,0,1,382,88.43c-17.26-.49-34.52-.85-51.76-.85s-34.5.34-51.74.85a64.8,64.8,0,0,1,1.11-8.14Zm-1.12,12.23c17.24.5,34.49.83,51.74.83S364.7,93,382,92.51a66.63,66.63,0,0,1-1.12,8.14,343.71,343.71,0,0,1-50.64,4.18,345.76,345.76,0,0,1-50.62-4.18,66.53,66.53,0,0,1-1.12-8.14Zm2.25,12.2a68.72,68.72,0,0,0,3.56,8.14c15.3,5.51,30.59,9.22,45.92,9.23s30.62-3.7,45.94-9.23a68.8,68.8,0,0,0,3.56-8.14c-16.5,3.52-33,5.87-49.51,5.86s-33-2.36-49.49-5.86Zm6.08,12.23c14.46,6.52,28.9,10.9,43.41,10.91s28.94-4.38,43.43-10.91a78.22,78.22,0,0,1-6.94,8.13c-12.16,8.53-24.27,14.28-36.49,14.27s-24.3-5.75-36.46-14.27A77.19,77.19,0,0,1,286.79,116.94Z"/></clipPath><clipPath id="clip-path-2" transform="translate(-5.84 -5.34)"><path class="cls-1" d="M106.35,36,88.61,133.21H35.54L15.21,36h37q6.26,40.2,9.11,68,2.81-28.1,5.76-49.88L69.38,36ZM146,36V48.69H111.38V36Zm0,17.57v79.61H111.38V53.6ZM226.72,79H197.08V74.71c0-3.69-.28-6-.88-7s-2-1.47-4.37-1.47a5.91,5.91,0,0,0-4.23,1.35,5.38,5.38,0,0,0-1.42,4.05,14.69,14.69,0,0,0,.71,5.36c.45,1.15,1.87,2.4,4.23,3.75s7.16,3.36,14.45,6c9.74,3.44,16.1,6.67,19.14,9.73s4.57,7.45,4.57,13.25q0,9.74-3.49,14.68c-2.33,3.3-6.22,5.86-11.67,7.64a64.23,64.23,0,0,1-19.76,2.66,73.58,73.58,0,0,1-21.89-2.87q-9.11-2.89-12.52-7.8t-3.41-14.87v-3.83h29.82v5c0,4.26.37,7,1.11,8.31s2.24,1.9,4.43,1.9c2.39,0,4-.43,5-1.29s1.42-2.68,1.42-5.43c0-3.81-.6-6.18-1.82-7.15s-7.78-3.81-19.51-8.54q-14.78-6-18-10.89a20.53,20.53,0,0,1-3.24-11.61q0-9.55,3.49-14.07t11.84-7a69,69,0,0,1,19.39-2.46,75,75,0,0,1,18.66,2c5.14,1.35,9.06,3.11,11.81,5.32s4.4,4.24,5,6.12a31.85,31.85,0,0,1,.88,8.83V79Zm46.11-43V48.69H238.25V36Zm0,17.57v79.61H238.25V53.6Z"/></clipPath></defs><title>Logo</title><path class="cls-2" d="M211.94,29.77C272.68,14.56,344.34,6.42,417.67,6.42c202.81,0,367.22,60.89,367.22,136a52.15,52.15,0,0,1-2.35,15.37" transform="translate(-5.84 -5.34)"/><path class="cls-3" d="M488.08,54.66l87.1,0c21.54,0,38.18,12.77,30.67,27.3l-27.17,52.58L520,134.42,537.9,104c9.45-16.09-19.31-16.55-35.24-16.7l-31.1-.3,16.52-32.29Zm-71.34,0-44.15,87.51H17.11L6.39,167H361.71l-39.15,82.06h60.63L423.41,167H562.22l13-24.85H436.45L480.6,54.66Z" transform="translate(-5.84 -5.34)"/><polygon class="cls-4" points="397.38 241.95 429.96 171.06 448.82 171.06 435.99 198.98 472.67 198.98 485.5 171.06 504.36 171.06 471.78 241.95 452.92 241.95 467.16 210.96 430.49 210.96 416.24 241.95 397.38 241.95"/><path class="cls-5" d="M581,247.29H560.73l-.62-16.14H522.75L507.6,247.29H487.65l68.74-70.89h19.92L581,247.29ZM559.5,219.17l-.88-26.24L534,219.17Z" transform="translate(-5.84 -5.34)"/><path class="cls-6" d="M591.08,247.29l32.58-70.89h39.6q14.93,0,20.82,1.91c3.95,1.27,6.51,3.53,7.72,6.78s.87,7-1.06,11.17a30.14,30.14,0,0,1-12.19,13.19q-8.53,5.2-21.37,6.55a22.89,22.89,0,0,1,7.28,5.94q2.48,3.24,5.37,11.52l5,13.83H652.36L646,231.81q-3.46-8.24-5.17-10.4a8.53,8.53,0,0,0-4.31-2.94,36.22,36.22,0,0,0-9.15-.79h-3.81l-13.61,29.6Zm37.65-40.89h13.92c9,0,14.77-.3,17.29-.87a17.76,17.76,0,0,0,6.65-3,13.53,13.53,0,0,0,4.36-5.33c1.1-2.39,1.13-4.31.15-5.79s-2.93-2.39-5.79-2.77q-2.19-.25-13.61-.25H637Z" transform="translate(-5.84 -5.34)"/><polygon class="cls-7" points="678.9 241.95 711.49 171.06 739.73 171.06 734.2 219.41 772.92 171.06 801.23 171.06 768.65 241.95 751.22 241.95 776.8 186.14 732.79 241.95 714.67 241.95 722.05 186.14 696.33 241.95 678.9 241.95"/><polygon class="cls-8" points="397.38 241.95 429.96 171.06 448.82 171.06 435.99 198.98 472.67 198.98 485.5 171.06 504.36 171.06 471.78 241.95 452.92 241.95 467.16 210.96 430.49 210.96 416.24 241.95 397.38 241.95"/><path class="cls-9" d="M581,247.29H560.73l-.62-16.14H522.75L507.6,247.29H487.65l68.74-70.89h19.92L581,247.29ZM559.5,219.17l-.88-26.24L534,219.17Z" transform="translate(-5.84 -5.34)"/><path class="cls-10" d="M591.08,247.29l32.58-70.89h39.6q14.93,0,20.82,1.91c3.95,1.27,6.51,3.53,7.72,6.78s.87,7-1.06,11.17a30.14,30.14,0,0,1-12.19,13.19q-8.53,5.2-21.37,6.55a22.89,22.89,0,0,1,7.28,5.94q2.48,3.24,5.37,11.52l5,13.83H652.36L646,231.81q-3.46-8.24-5.17-10.4a8.53,8.53,0,0,0-4.31-2.94,36.22,36.22,0,0,0-9.15-.79h-3.81l-13.61,29.6Zm37.65-40.89h13.92c9,0,14.77-.3,17.29-.87a17.76,17.76,0,0,0,6.65-3,13.53,13.53,0,0,0,4.36-5.33c1.1-2.39,1.13-4.31.15-5.79s-2.93-2.39-5.79-2.77q-2.19-.25-13.61-.25H637Z" transform="translate(-5.84 -5.34)"/><polygon class="cls-11" points="678.9 241.95 711.49 171.06 739.73 171.06 734.2 219.41 772.92 171.06 801.23 171.06 768.65 241.95 751.22 241.95 776.8 186.14 732.79 241.95 714.67 241.95 722.05 186.14 696.33 241.95 678.9 241.95"/><g class="cls-12"><rect class="cls-13" x="272.62" y="132.81" width="103.5" height="1.2"/><rect class="cls-14" x="272.62" y="130.37" width="103.5" height="3.67"/><rect class="cls-15" x="272.62" y="127.92" width="103.5" height="3.67"/><rect class="cls-16" x="272.62" y="125.48" width="103.5" height="3.67"/><rect class="cls-17" x="272.62" y="123.04" width="103.5" height="3.67"/><rect class="cls-18" x="272.62" y="120.59" width="103.5" height="3.67"/><rect class="cls-19" x="272.62" y="118.15" width="103.5" height="3.67"/><rect class="cls-20" x="272.62" y="115.71" width="103.5" height="3.67"/><rect class="cls-21" x="272.62" y="113.26" width="103.5" height="3.67"/><rect class="cls-22" x="272.62" y="110.82" width="103.5" height="3.67"/><rect class="cls-23" x="272.62" y="108.37" width="103.5" height="3.67"/><rect class="cls-24" x="272.62" y="105.93" width="103.5" height="3.67"/><rect class="cls-25" x="272.62" y="103.49" width="103.5" height="3.67"/><rect class="cls-26" x="272.62" y="101.04" width="103.5" height="3.67"/><rect class="cls-27" x="272.62" y="98.6" width="103.5" height="3.67"/><rect class="cls-28" x="272.62" y="96.16" width="103.5" height="3.66"/><rect class="cls-29" x="272.62" y="93.71" width="103.5" height="3.67"/><rect class="cls-30" x="272.62" y="91.27" width="103.5" height="3.67"/><rect class="cls-31" x="272.62" y="88.83" width="103.5" height="3.67"/><rect class="cls-32" x="272.62" y="86.38" width="103.5" height="3.67"/><rect class="cls-33" x="272.62" y="83.94" width="103.5" height="3.67"/><rect class="cls-34" x="272.62" y="81.49" width="103.5" height="3.67"/><rect class="cls-35" x="272.62" y="79.05" width="103.5" height="3.67"/><rect class="cls-36" x="272.62" y="76.61" width="103.5" height="3.67"/><rect class="cls-37" x="272.62" y="74.16" width="103.5" height="3.67"/><rect class="cls-38" x="272.62" y="71.72" width="103.5" height="3.67"/><rect class="cls-39" x="272.62" y="69.28" width="103.5" height="3.67"/><rect class="cls-40" x="272.62" y="66.83" width="103.5" height="3.67"/><rect class="cls-41" x="272.62" y="64.39" width="103.5" height="3.67"/><rect class="cls-42" x="272.62" y="61.95" width="103.5" height="3.67"/><rect class="cls-43" x="272.62" y="59.5" width="103.5" height="3.67"/><rect class="cls-44" x="272.62" y="57.06" width="103.5" height="3.67"/><rect class="cls-45" x="272.62" y="54.61" width="103.5" height="3.67"/><rect class="cls-46" x="272.62" y="52.17" width="103.5" height="3.67"/><rect class="cls-47" x="272.62" y="49.73" width="103.5" height="3.67"/><rect class="cls-48" x="272.62" y="47.28" width="103.5" height="3.67"/><rect class="cls-49" x="272.62" y="44.84" width="103.5" height="3.67"/><rect class="cls-50" x="272.62" y="42.4" width="103.5" height="3.67"/><rect class="cls-51" x="272.62" y="39.95" width="103.5" height="3.67"/><rect class="cls-52" x="272.62" y="36.25" width="103.5" height="4.92"/></g><path class="cls-53" d="M293.74,55.88C305.89,47.34,318,41.6,330.2,41.6s24.32,5.77,36.49,14.28a72.09,72.09,0,0,1,7,8.15c-14.5-6.51-29-10.92-43.5-10.93s-29,4.4-43.48,10.93a73.05,73.05,0,0,1,7-8.15Zm-9.51,12.21c15.32-5.52,30.63-9.25,46-9.25s30.66,3.74,46,9.25a67.27,67.27,0,0,1,3.52,8.14c-16.51-3.51-33-5.89-49.52-5.89s-33,2.38-49.5,5.89a67.27,67.27,0,0,1,3.52-8.14Zm-4.65,12.2a343.13,343.13,0,0,1,50.63-4.21,346.52,346.52,0,0,1,50.65,4.21A66.76,66.76,0,0,1,382,88.43c-17.26-.49-34.52-.85-51.76-.85s-34.5.34-51.74.85a64.8,64.8,0,0,1,1.11-8.14Zm-1.12,12.23c17.24.5,34.49.83,51.74.83S364.7,93,382,92.51a66.63,66.63,0,0,1-1.12,8.14,343.71,343.71,0,0,1-50.64,4.18,345.76,345.76,0,0,1-50.62-4.18,66.53,66.53,0,0,1-1.12-8.14Zm2.25,12.2c16.49,3.51,33,5.85,49.49,5.86s33-2.35,49.51-5.86a68.8,68.8,0,0,1-3.56,8.14c-15.32,5.52-30.62,9.24-45.94,9.23s-30.62-3.71-45.92-9.23a68.72,68.72,0,0,1-3.56-8.14Zm6.08,12.23c14.46,6.52,28.9,10.9,43.41,10.91s28.94-4.38,43.43-10.91a78.22,78.22,0,0,1-6.94,8.13c-12.16,8.53-24.27,14.28-36.49,14.27s-24.3-5.75-36.46-14.27A77.19,77.19,0,0,1,286.79,116.94Z" transform="translate(-5.84 -5.34)"/><g class="cls-54"><rect class="cls-55" x="5.5" y="24.7" width="278.84" height="108.11"/></g><path class="cls-56" d="M106.35,36,88.61,133.21H35.54L15.21,36h37q6.26,40.2,9.11,68,2.81-28.1,5.76-49.88L69.38,36Z" transform="translate(-5.84 -5.34)"/><path class="cls-56" d="M146,36V48.69H111.38V36Zm0,17.57v79.61H111.38V53.6Z" transform="translate(-5.84 -5.34)"/><path class="cls-56" d="M226.72,79H197.08V74.71c0-3.69-.28-6-.88-7s-2-1.47-4.37-1.47a5.91,5.91,0,0,0-4.23,1.35,5.38,5.38,0,0,0-1.42,4.05,14.69,14.69,0,0,0,.71,5.36c.45,1.15,1.87,2.4,4.23,3.75s7.16,3.36,14.45,6c9.74,3.44,16.1,6.67,19.14,9.73s4.57,7.45,4.57,13.25q0,9.74-3.49,14.68c-2.33,3.3-6.22,5.86-11.67,7.64a64.23,64.23,0,0,1-19.76,2.66,73.58,73.58,0,0,1-21.89-2.87q-9.11-2.89-12.52-7.8t-3.41-14.87v-3.83h29.82v5c0,4.26.37,7,1.11,8.31s2.24,1.9,4.43,1.9c2.39,0,4-.43,5-1.29s1.42-2.68,1.42-5.43c0-3.81-.6-6.18-1.82-7.15s-7.78-3.81-19.51-8.54q-14.78-6-18-10.89a20.53,20.53,0,0,1-3.24-11.61q0-9.55,3.49-14.07t11.84-7a69,69,0,0,1,19.39-2.46,75,75,0,0,1,18.66,2c5.14,1.35,9.06,3.11,11.81,5.32s4.4,4.24,5,6.12a31.85,31.85,0,0,1,.88,8.83Z" transform="translate(-5.84 -5.34)"/><path class="cls-56" d="M272.83,36V48.69H238.25V36Zm0,17.57v79.61H238.25V53.6Z" transform="translate(-5.84 -5.34)"/><path class="cls-57" d="M636.25,251.72C573,269.07,496.38,278.44,417.67,278.44c-157.23,0-297-37.08-347.66-92.21" transform="translate(-5.84 -5.34)"/></svg>