<?xml version="1.0" encoding="utf-8"?>
<!-- Generator: Adobe Illustrator 24.0.1, SVG Export Plug-In . SVG Version: 6.00 Build 0)  -->
<svg version="1.1" id="Calque_1" xmlns="http://www.w3.org/2000/svg" xmlns:xlink="http://www.w3.org/1999/xlink" x="0px" y="0px"
	 width="588.3px" height="360.4px" viewBox="0 0 588.3 360.4" style="enable-background:new 0 0 588.3 360.4;" xml:space="preserve"
	>
<style type="text/css">
	.st0{fill:#F08B1E;}
	.st1{fill:#5A3C8C;}
	.st2{fill:#EA522C;}
	.st3{fill:#EB287D;}
</style>
<g>
	<path class="st0" d="M249.4,312.2c-12.8,24.2-32.9,39.3-59.2,45.5c-21.7,5.1-43.1,3-62.9-7.9c-21.1-11.7-36.6-28.7-45.2-51.4
		c-11.3-29.7-22.4-59.6-33.3-89.4c-9.8-27-19.4-54.1-29-81.1C13.9,111.3,7.9,94.7,2.3,78c-5.2-15.7-0.8-30.4,7-43.8
		C27.9,2.5,64.7-1.6,92.9,12.3c14.1,7,23.1,19.2,28.4,34.2c8.6,24,17.3,48,26,72c7,19.3,14,38.7,21.1,58c0.2,1.5,0.3,3.1,0.8,4.6
		c5,14.1,9.8,28.3,15.2,42.3c6.8,17.6,12.7,35.7,21.3,52.4C214.8,293.4,230.4,305.3,249.4,312.2"/>
	<path class="st1" d="M502.4,307.1c-1.8-0.4-3.8-0.4-5.4-1.2c-23.1-10.6-39.9-27.1-48.5-51.6c-8.2-23.5-17-46.7-25.3-70.1
		c-1.3-3.7-1.9-7.7-2.8-11.5c16.3-44.4,31.5-89.3,49.1-133.1C481.7,9.3,512.4-6.3,544,2.3c25.7,7,45,29.5,44.3,57.9
		c-0.2,10.2-2,19.9-5.5,29.3c-11.6,31.7-23.3,63.3-34.8,95c-13.5,37-26.8,74.2-40.3,111.2C506.3,299.7,504.2,303.3,502.4,307.1"/>
	<path class="st2" d="M249.4,312.2c-19-6.9-34.6-18.8-43.7-36.6c-8.6-16.7-14.5-34.8-21.3-52.4c-5.4-14-10.2-28.2-15.2-42.3
		c-0.5-1.4-0.5-3-0.8-4.6c4.7-11.7,9.6-23.3,14-35.1c8.8-23.7,17.2-47.6,25.9-71.3c1.5-4.2,4-8,6-12c25.9,10.8,43.4,29.4,52.7,55.9
		c4.1,11.6,8.3,23.3,12.7,34.8c5.1,13.1,10.5,26,15.8,39.1c0.6,1.5,0.7,3.1,1,4.7c-1.9,4.6-3.8,9.2-5.6,13.9
		c-12.3,32-24.4,64.1-36.7,96.1C252.9,305.7,251,308.9,249.4,312.2"/>
	<path class="st3" d="M502.4,307.1c-3.9,12.4-12.5,21.7-22.5,29.1c-12.1,8.9-25.5,15.9-40.7,18.9c-44.2,9-87.8-14.5-103.8-56.8
		c-13.3-35.2-25.9-70.6-38.9-106c-0.3-1.5-0.4-3.2-1-4.7c-5.2-13-10.7-26-15.8-39.1c-4.5-11.5-8.6-23.1-12.7-34.8
		c-9.3-26.4-26.8-45.1-52.7-55.9c15.5-28.8,39.5-44.9,72.1-47.9c35.1-3.2,63.6,9.4,84.1,38c6.4,8.9,10.6,19.5,14.5,29.8
		c11.2,29.6,21.8,59.5,32.6,89.3c0.7,1.9,1.9,3.7,2.8,5.5c0.9,3.8,1.4,7.8,2.8,11.5c8.4,23.4,17.2,46.7,25.3,70.1
		c8.5,24.5,25.3,41,48.5,51.6C498.7,306.7,500.6,306.7,502.4,307.1"/>
</g>
</svg>
